<svg width="17" height="16" viewBox="0 0 17 16" fill="none" xmlns="http://www.w3.org/2000/svg">
<path fill-rule="evenodd" clip-rule="evenodd" d="M13.358 0C14.0286 0 14.5723 0.551034 14.5723 1.23077L14.5714 6.4L15.0951 6.03356C15.6467 5.64695 16.403 5.78677 16.7845 6.34585C16.9248 6.55157 17 6.79575 17 7.04587V14.7692C17 15.449 16.4563 16 15.7857 16H1.21429C0.543654 16 0 15.449 0 14.7692V7.04476C0 6.36503 0.543654 5.81399 1.21429 5.81399C1.46089 5.81399 1.70165 5.8901 1.90454 6.03218L2.42857 6.4L2.42942 1.23077C2.42942 0.551034 2.97307 0 3.6437 0H13.358ZM1.21429 7.04476V14.7692H15.7857V7.04587L9.19418 11.6659C8.77873 11.957 8.22883 11.9571 7.81328 11.6661L1.21429 7.04476ZM13.358 1.23077H3.64372L3.64287 7.25046L8.50354 10.6535L13.3572 7.25046L13.358 1.23077ZM10.9245 6.15385C11.2598 6.15385 11.5316 6.42936 11.5316 6.76923C11.5316 7.1091 11.2598 7.38462 10.9245 7.38462H6.06732C5.73201 7.38462 5.46018 7.1091 5.46018 6.76923C5.46018 6.42936 5.73201 6.15385 6.06732 6.15385H10.9245ZM10.9245 3.69231C11.2598 3.69231 11.5316 3.96782 11.5316 4.30769C11.5316 4.64756 11.2598 4.92308 10.9245 4.92308H6.06732C5.73201 4.92308 5.46018 4.64756 5.46018 4.30769C5.46018 3.96782 5.73201 3.69231 6.06732 3.69231H10.9245Z" fill="#333333"/>
</svg>
